<?xml version="1.0" encoding="UTF-8"?>
<svg id="Capa_1" xmlns="http://www.w3.org/2000/svg" version="1.1" viewBox="0 0 800 400">
  <!-- Generator: Adobe Illustrator 30.2.1, SVG Export Plug-In . SVG Version: 2.1.1 Build 1)  -->
  <defs>
    <style>
      .st0, .st1 {
        fill-opacity: .1;
      }

      .st0, .st2 {
        stroke: #f38020;
      }

      .st0, .st3, .st4, .st5, .st6 {
        stroke-width: 2px;
      }

      .st0, .st7, .st8 {
        fill: #f38020;
      }

      .st9, .st10, .st11, .st12, .st13, .st14, .st7, .st15, .st8, .st16, .st17, .st18 {
        isolation: isolate;
      }

      .st9, .st1, .st13 {
        fill: #22c55e;
      }

      .st9, .st14, .st8, .st17 {
        font-family: Arial-BoldMT, 'Arial MT';
        font-weight: 700;
      }

      .st9, .st16, .st17 {
        font-size: 11px;
      }

      .st10 {
        fill: #64748b;
        font-family: Arial-ItalicMT, 'Arial MT';
        font-style: italic;
      }

      .st10, .st18 {
        font-size: 12px;
      }

      .st11, .st12 {
        fill: #8b949e;
      }

      .st11, .st12, .st13, .st7, .st15, .st16, .st18 {
        font-family: ArialMT, Arial;
      }

      .st11, .st7 {
        font-size: 10px;
      }

      .st1 {
        stroke: #22c55e;
      }

      .st12, .st13, .st15 {
        font-size: 9px;
      }

      .st2 {
        stroke-width: 3px;
      }

      .st2, .st19, .st4, .st5 {
        fill: none;
      }

      .st14 {
        fill: #2496ed;
      }

      .st14, .st8 {
        font-size: 14px;
      }

      .st3, .st19, .st20, .st4 {
        stroke: #30363d;
      }

      .st3, .st20, .st6 {
        fill: #161b22;
      }

      .st4, .st5 {
        stroke-dasharray: 4 4;
      }

      .st15 {
        fill: #484f58;
      }

      .st16, .st18 {
        fill: #c9d1d9;
      }

      .st5, .st6 {
        stroke: #2496ed;
      }

      .st21 {
        fill: #0d1117;
      }

      .st17 {
        fill: #fff;
        opacity: .8;
      }
    </style>
  </defs>
  <rect class="st21" y="0" width="800" height="400" rx="15" ry="15"/>
  <path class="st4" d="M120,200h100"/>
  <path class="st2" d="M340,200h80"/>
  <path class="st5" d="M540,200h60"/>
  <circle class="st3" cx="80" cy="200" r="40"/>
  <text class="st18" transform="translate(52.66 205)"><tspan x="0" y="0">USUARIO</tspan></text>
  <text class="st11" transform="translate(39.42 260)"><tspan x="0" y="0">enoelbautista.com</tspan></text>
  <rect class="st0" x="220" y="160" width="120" height="80" rx="10" ry="10"/>
  <text class="st8" transform="translate(231.78 195)"><tspan x="0" y="0">CLOUDFLARE</tspan></text>
  <text class="st7" transform="translate(231.56 215)"><tspan x="0" y="0">WAF / SSL / TUNNEL</tspan></text>
  <rect class="st6" x="420" y="80" width="340" height="240" rx="15" ry="15"/>
  <text class="st14" transform="translate(506.9 110)"><tspan x="0" y="0">MI SERVIDOR (DOCKER)</tspan></text>
  <rect class="st1" x="440" y="160" width="100" height="80" rx="5" ry="5"/>
  <text class="st9" transform="translate(472.58 195)"><tspan x="0" y="0">NGINX</tspan></text>
  <text class="st13" transform="translate(474.25 210)"><tspan x="0" y="0">PROXY</tspan></text>
  <path class="st19" d="M540,200c20,0,30-13.33,30-40h30"/>
  <path class="st19" d="M540,200c20,0,30,13.33,30,40h30"/>
  <rect class="st20" x="600" y="130" width="140" height="50" rx="5" ry="5"/>
  <text class="st16" transform="translate(639.83 155)"><tspan x="0" y="0">Vaultwarden</tspan></text>
  <text class="st12" transform="translate(611.21 170)"><tspan x="0" y="0">enoelbautistacontraseña.com</tspan></text>
  <rect class="st20" x="600" y="220" width="140" height="50" rx="5" ry="5"/>
  <text class="st16" transform="translate(642.49 245)"><tspan x="0" y="0">Mi Portfolio</tspan></text>
  <text class="st12" transform="translate(633.48 260)"><tspan x="0" y="0">enoelbautista.com</tspan></text>
  <text class="st15" transform="translate(602.57 380)"><tspan x="0" y="0">Designed by Enoel Bautista | Illustrator</tspan></text>
  <text class="st10" transform="translate(264.74 144.12)"><tspan x="0" y="0">Secure Tunnel (HTTPS)</tspan></text>
  <text class="st17" transform="translate(216.12 260)"><tspan x="0" y="0">PROTECCIÓN Y CACHÉ</tspan></text>
</svg>